# xmcd CD database file
#
# Track frame offsets:
#	150
#	14938
#	24391
#	38160
#	46326
#	52854
#	69694
#	83193
#	87163
#	95954
#	101154
#	112606
#	121713
#	128979
#	137134
#
# Disc length: 1961 seconds
#
# Revision: 1
# Processed by: cddbd v1.5.2PL0 Copyright (c) Steve Scherf et al.
# Submitted via: CDex 1.72
#
DISCID=c807a70f
DTITLE=Minimalist Jug Band, The (Cnd-03-For Crying Out Loud-blues) - The minimalist Jug Band
DYEAR=1900
DGENRE=Blues
TTITLE0=Posting Crap On E-Bay
TTITLE1=Writer
TTITLE2=Making Myself Sick
TTITLE3=First Murder Of the Year
TTITLE4=One Year Closer To Death
TTITLE5=Now Is The Time
TTITLE6=Problems In The Box
TTITLE7=Washed Up Guy On A Washboard
TTITLE8=Violent Type
TTITLE9=Four Horse In The Last Race
TTITLE10=She Wants My Heart
TTITLE11=Temperate Zone
TTITLE12=Lenore
TTITLE13=Feel Great Today'Cause I Ate today
TTITLE14=I'm A lousy Lay
EXTD=
EXTT0=
EXTT1=
EXTT2=
EXTT3=
EXTT4=
EXTT5=
EXTT6=
EXTT7=
EXTT8=
EXTT9=
EXTT10=
EXTT11=
EXTT12=
EXTT13=
EXTT14=
PLAYORDER=
